<svg width="1500" height="1500" viewBox="0 0 1500 1500" fill="none" xmlns="http://www.w3.org/2000/svg">
<path d="M849.928 620.859C881.058 620.859 896.623 620.859 909.529 623.638C957.195 633.9 994.428 671.133 1004.69 718.799C1007.47 731.705 1007.47 747.27 1007.47 778.4V839.907C1007.47 847.69 1007.47 851.581 1006.77 854.808C1004.21 866.724 994.901 876.033 982.984 878.599C979.758 879.293 975.866 879.293 968.084 879.293H536.635C528.922 879.293 525.064 879.293 521.857 879.979C510.018 882.511 500.734 891.703 498.084 903.517C497.366 906.717 497.328 910.573 497.251 918.286L492.878 1357.17C492.801 1364.88 492.763 1368.74 492.045 1371.94C489.395 1383.75 480.111 1392.94 468.271 1395.47C465.065 1396.16 461.208 1396.16 453.495 1396.16H313.771C298.206 1396.16 290.423 1396.16 283.97 1394.77C260.137 1389.64 241.521 1371.02 236.39 1347.19C235 1340.74 235 1332.95 235 1317.39V911.836C235 905.035 235 901.634 235.347 898.369C236.604 886.528 241.243 875.3 248.71 866.024C250.769 863.467 253.169 861.057 257.97 856.239L469.401 644.032C474.226 639.19 476.638 636.769 479.201 634.692C488.497 627.161 499.772 622.478 511.668 621.209C514.948 620.859 518.366 620.859 525.202 620.859H849.928ZM682.977 941.308C754.08 941.308 811.722 999.16 811.722 1070.52C811.722 1141.89 754.08 1199.74 682.977 1199.74C611.873 1199.74 554.231 1141.89 554.231 1070.52C554.232 999.16 611.873 941.308 682.977 941.308ZM430.34 300.374C498.85 300.374 554.388 355.912 554.389 424.422V527.796C554.389 544.923 540.503 558.808 523.376 558.808H327.911C310.784 558.808 296.898 544.923 296.898 527.796V331.386C296.899 314.258 310.784 300.374 327.911 300.374H430.34ZM1140.96 104C1209.47 104 1265 159.538 1265 228.048V331.422C1265 348.549 1251.12 362.434 1233.99 362.434H678.154C643.899 362.434 616.13 334.664 616.13 300.409V135.012C616.13 117.884 630.015 104 647.143 104H1140.96Z" fill="white"/>
</svg>
