<svg width="1700" height="459" viewBox="0 0 1700 459" fill="none" xmlns="http://www.w3.org/2000/svg">
<path d="M219.31 187.524C229.399 187.524 234.445 187.524 238.628 188.425C254.077 191.751 266.145 203.819 269.471 219.269C270.371 223.452 270.372 228.496 270.372 238.586V258.521C270.372 261.044 270.372 262.306 270.146 263.352C269.315 267.214 266.298 270.231 262.436 271.062C261.39 271.288 260.129 271.287 257.606 271.287H117.766C115.266 271.287 114.016 271.288 112.977 271.51C109.139 272.331 106.13 275.31 105.271 279.139C105.038 280.176 105.026 281.426 105.001 283.926L103.583 426.175C103.558 428.674 103.546 429.925 103.313 430.962C102.455 434.791 99.4457 437.77 95.6084 438.591C94.569 438.813 93.3183 438.813 90.8184 438.813H45.5313C40.4864 438.813 37.9637 438.814 35.8721 438.363C28.1476 436.7 22.1142 430.666 20.4512 422.941C20.0009 420.85 20 418.327 20 413.282V281.835C20 279.631 19.9999 278.528 20.1123 277.47C20.5199 273.632 22.0243 269.993 24.4443 266.986C25.1116 266.157 25.8897 265.377 27.4453 263.815L95.9736 195.035C97.5373 193.466 98.3197 192.681 99.1504 192.008C102.163 189.567 105.818 188.049 109.674 187.638C110.737 187.524 111.845 187.524 114.061 187.524H219.31ZM165.2 291.387C188.246 291.387 206.929 310.138 206.929 333.269C206.928 356.399 188.246 375.149 165.2 375.149C142.154 375.149 123.472 356.399 123.472 333.269C123.472 310.138 142.154 291.387 165.2 291.387ZM83.3096 83.6504C105.515 83.6504 123.517 101.651 123.517 123.856V157.361C123.517 162.913 119.016 167.413 113.465 167.413H50.1104C44.5592 167.413 40.0596 162.913 40.0596 157.361V93.7012C40.0598 88.1501 44.5593 83.6506 50.1104 83.6504H83.3096ZM313.636 20C335.841 20 353.842 38.0008 353.842 60.2061V93.7119C353.842 99.263 349.342 103.763 343.791 103.763H163.634C152.531 103.763 143.53 94.7627 143.53 83.6602V30.0518C143.53 24.5004 148.031 20 153.582 20H313.636Z" fill="url(#paint0_linear_7867_48)"/>
<path d="M466.74 381.037V205.17H426.68V164.308H466.74V153.091C466.74 136.8 470.079 123.179 476.756 112.23C483.432 101.013 492.646 92.4663 504.397 86.5907C516.416 80.7151 530.17 77.7773 545.66 77.7773C548.598 77.7773 551.936 78.0444 555.675 78.5785C559.414 78.8456 562.485 79.2462 564.889 79.7804V119.04C562.753 118.506 560.349 118.239 557.678 118.239C555.007 117.972 552.871 117.838 551.268 117.838C539.25 117.838 529.636 120.642 522.425 126.251C515.214 131.592 511.608 140.539 511.608 153.091V164.308L546.279 164.137C556.37 164.087 564.578 172.254 564.578 182.346V205.17H511.608V381.037H466.74Z" fill="#0E3E48"/>
<path d="M656.813 381.038C642.124 381.038 629.171 378.501 617.954 373.427C607.004 368.085 598.458 360.874 592.316 351.794C586.173 342.446 583.102 331.497 583.102 318.944C583.102 307.193 585.639 296.644 590.713 287.296C596.055 277.949 604.2 270.07 615.15 263.66C626.1 257.251 639.854 252.71 656.413 250.04L731.727 237.621V273.275L665.226 284.893C653.208 287.029 644.394 290.902 638.786 296.51C633.177 301.852 630.373 308.795 630.373 317.342C630.373 325.621 633.445 332.431 639.587 337.773C645.997 342.847 654.143 345.384 664.024 345.384C676.309 345.384 686.992 342.714 696.073 337.372C705.42 332.031 712.631 324.953 717.706 316.14C722.78 307.059 725.317 297.044 725.317 286.094V230.41C725.317 219.727 721.311 211.047 713.299 204.371C705.554 197.427 695.138 193.955 682.051 193.955C670.033 193.955 659.484 197.16 650.404 203.569C641.59 209.712 635.047 217.724 630.774 227.606L593.117 208.777C597.123 198.094 603.666 188.747 612.746 180.735C621.827 172.456 632.376 166.046 644.394 161.506C656.68 156.965 669.633 154.695 683.253 154.695C700.346 154.695 715.435 157.9 728.522 164.31C741.875 170.72 752.158 179.666 759.369 191.151C766.847 202.368 770.586 215.454 770.586 230.41V362.829C770.586 372.886 762.433 381.038 752.376 381.038H727.32V336.972L736.534 338.173C731.46 346.987 724.916 354.598 716.904 361.008C709.159 367.418 700.212 372.358 690.064 375.83C680.182 379.302 669.099 381.038 656.813 381.038Z" fill="#0E3E48"/>
<path d="M788.789 381.036V164.307H813.845C823.902 164.307 832.055 172.46 832.055 182.517V211.178L826.446 203.967C830.986 189.278 839.266 178.195 851.284 170.717C863.302 163.239 877.056 159.5 892.546 159.5C909.906 159.5 925.262 164.174 938.616 173.521C952.237 182.602 961.317 194.753 965.857 209.976L953.038 211.178C959.448 193.819 969.196 180.866 982.282 172.319C995.636 163.773 1010.86 159.5 1027.95 159.5C1042.91 159.5 1056.39 162.972 1068.41 169.916C1080.7 176.86 1090.45 186.474 1097.66 198.759C1104.87 211.045 1108.47 225.066 1108.47 240.823V381.036H1063.2V253.242C1063.2 242.292 1061.2 233.078 1057.2 225.6C1053.46 217.855 1048.12 211.98 1041.17 207.973C1034.49 203.7 1026.62 201.564 1017.54 201.564C1008.46 201.564 1000.44 203.7 993.499 207.973C986.555 211.98 981.08 217.855 977.074 225.6C973.068 233.345 971.065 242.559 971.065 253.242V381.036H926.197V253.242C926.197 242.292 924.194 233.078 920.188 225.6C916.449 217.855 911.108 211.98 904.164 207.973C897.487 203.7 889.475 201.564 880.127 201.564C871.047 201.564 863.035 203.7 856.091 207.973C849.147 211.98 843.672 217.855 839.666 225.6C835.927 233.345 834.058 242.559 834.058 253.242V381.036H788.789Z" fill="#0E3E48"/>
<path d="M1126.69 381.035V159.712H1171.96V381.035H1126.69ZM1126.69 132.398V83.8398H1153.53C1163.58 83.8398 1171.74 91.9925 1171.74 102.049V132.398H1126.69Z" fill="#0E3E48"/>
<path d="M1190.16 381.037V83.8474L1235.43 83.8398V381.037H1190.16Z" fill="#0E3E48"/>
<path d="M1253.64 381.035V159.712H1298.91V381.035H1253.64ZM1253.64 132.398V83.8398H1280.7C1290.76 83.8398 1298.91 91.9925 1298.91 102.049V132.398H1253.64Z" fill="#0E3E48"/>
<path d="M1426.88 381.038C1404.18 381.038 1386.56 374.629 1374 361.809C1361.45 348.99 1355.17 330.962 1355.17 307.727V202.768H1317.12V161.906H1323.13C1333.27 161.906 1341.15 158.969 1346.76 153.093C1352.37 147.217 1355.17 139.205 1355.17 129.057V111.164H1382.23C1392.29 111.164 1400.44 119.317 1400.44 129.373V161.906H1449.72V202.768H1400.44V305.724C1400.44 313.202 1401.65 319.612 1404.05 324.953C1406.45 330.028 1410.33 334.034 1415.67 336.972C1421.01 339.642 1427.95 340.978 1436.5 340.978C1438.63 340.978 1441.04 340.844 1443.71 340.577C1446.38 340.31 1448.92 340.043 1451.32 339.776V378.635C1447.58 379.169 1443.44 379.703 1438.9 380.237C1434.36 380.771 1430.36 381.038 1426.88 381.038Z" fill="#0E3E48"/>
<path d="M1580.1 381.038C1558.47 381.038 1539.24 376.097 1522.41 366.216C1505.85 356.067 1492.9 342.446 1483.55 325.354C1474.2 307.994 1469.53 288.632 1469.53 267.266C1469.53 245.366 1474.2 226.003 1483.55 209.178C1493.17 192.352 1505.99 179.132 1522.01 169.518C1538.04 159.636 1556.2 154.695 1576.49 154.695C1592.78 154.695 1607.34 157.5 1620.16 163.108C1632.98 168.717 1643.8 176.462 1652.61 186.343C1661.42 195.958 1668.1 207.041 1672.64 219.594C1677.45 232.146 1679.85 245.5 1679.85 259.654C1679.85 263.033 1679.85 262.144 1679.85 265.932C1679.83 266.203 1679.81 266.496 1679.78 266.808C1679.09 275.135 1671.99 280.887 1663.63 280.887H1505.19V244.832H1652.21L1630.58 261.257C1633.25 248.17 1632.31 236.553 1627.77 226.404C1623.5 215.988 1616.82 207.842 1607.74 201.967C1598.93 195.824 1588.51 192.753 1576.49 192.753C1564.48 192.753 1553.79 195.824 1544.44 201.967C1535.1 207.842 1527.89 216.389 1522.81 227.606C1517.74 238.556 1515.73 251.909 1516.8 267.666C1515.47 282.355 1517.47 295.175 1522.81 306.125C1528.42 317.075 1536.17 325.621 1546.05 331.764C1556.2 337.906 1567.68 340.978 1580.5 340.978C1593.59 340.978 1604.67 338.04 1613.75 332.164C1623.1 326.289 1630.44 318.677 1635.78 309.33L1672.64 327.357C1668.37 337.506 1661.69 346.72 1652.61 354.999C1643.8 363.011 1633.11 369.421 1620.56 374.228C1608.27 378.768 1594.79 381.038 1580.1 381.038Z" fill="#0E3E48"/>
<defs>
<linearGradient id="paint0_linear_7867_48" x1="288.743" y1="45.9665" x2="-31.1888" y2="509.836" gradientUnits="userSpaceOnUse">
<stop stop-color="#0E3E48"/>
<stop offset="0.485102" stop-color="#08D1D0"/>
<stop offset="1" stop-color="#96E5AC"/>
</linearGradient>
</defs>
</svg>
