<svg width="192" height="192" viewBox="0 0 192 192" fill="none" xmlns="http://www.w3.org/2000/svg">
<path d="M108.142 80C111.996 80 113.923 79.9998 115.521 80.3438C121.423 81.6144 126.034 86.225 127.305 92.127C127.649 93.725 127.649 95.6524 127.649 99.5068V107.123C127.649 108.086 127.649 108.568 127.563 108.968C127.246 110.443 126.093 111.596 124.617 111.914C124.218 112 123.736 112 122.772 112H69.3486C68.394 112 67.9165 112 67.5195 112.085C66.0536 112.399 64.9045 113.536 64.5762 114.999C64.4873 115.395 64.4822 115.873 64.4727 116.828L63.9307 171.172C63.9212 172.126 63.9169 172.604 63.8281 173C63.5 174.463 62.3498 175.601 60.8838 175.915C60.4868 176 60.0093 176 59.0547 176H41.7539C39.8266 176 38.8625 176 38.0635 175.828C35.1126 175.193 32.8073 172.887 32.1719 169.937C31.9998 169.137 32 168.173 32 166.246V116.029C32 115.188 32.0001 114.766 32.043 114.362C32.1986 112.896 32.7729 111.506 33.6973 110.357C33.9522 110.041 34.2495 109.742 34.8438 109.146L61.0244 82.8691C61.6215 82.2699 61.92 81.97 62.2373 81.7129C63.3883 80.7803 64.7848 80.2001 66.2578 80.043C66.664 79.9997 67.0873 80 67.9336 80H108.142ZM87.4678 119.675C96.2718 119.675 103.409 126.838 103.409 135.675C103.409 144.511 96.2718 151.675 87.4678 151.675C78.6635 151.675 71.5254 144.511 71.5254 135.675C71.5254 126.838 78.6635 119.675 87.4678 119.675ZM56.1885 40.3174C64.6712 40.3176 71.5476 47.194 71.5479 55.6768V68.4775C71.5476 70.5981 69.8286 72.3174 67.708 72.3174H43.5049C41.3843 72.3173 39.6652 70.5981 39.665 68.4775V44.1572C39.665 42.0365 41.3842 40.3175 43.5049 40.3174H56.1885ZM144.176 16C152.659 16 159.536 22.8773 159.536 31.3604V44.1602C159.536 46.2808 157.817 47.9999 155.696 48H86.8711C82.6297 48 79.1916 44.5617 79.1914 40.3203V19.8398C79.1915 17.7191 80.9105 16 83.0313 16H144.176Z" fill="url(#paint0_linear_7868_86)"/>
<defs>
<linearGradient id="paint0_linear_7868_86" x1="134.667" y1="25.92" x2="12.442" y2="203.131" gradientUnits="userSpaceOnUse">
<stop stop-color="#0E3E48"/>
<stop offset="0.485102" stop-color="#08D1D0"/>
<stop offset="1" stop-color="#96E5AC"/>
</linearGradient>
</defs>
</svg>
